<?xml version="1.0" encoding="UTF-8"?>
<!-- Generated by jsxcad -->
<!DOCTYPE svg PUBLIC "-//W3C//DTD SVG 1.1 Tiny//EN" "http://www.w3.org/Graphics/SVG/1.1/DTD/svg11-tiny.dtd">
<svg baseProfile="tiny" height="17.60609137055839mm" width="8.346700507614218mm" viewBox="0 0 8.346700507614218 17.60609137055839" version="1.1" stroke="black" stroke-width=".1" fill="none" xmlns="http://www.w3.org/2000/svg">
<path fill="#000000" stroke="#000000" d="M3.642642259172238 9.332992262418175 L4.704058679548955 8.273098677651754 L4.704058679548955 8.273098677651754 L3.642642259172238 9.332992262418175 z"/>
<path fill="#000000" stroke="#000000" d="M4.70406 8.2731 L11.77005 15.34924 L10.70863 16.40914 L3.64264 9.33299 z"/>
<path fill="#000000" stroke="#000000" d="M10.708631192491037 16.40913880921985 L3.6426373347363934 9.332992661439699 L3.6426373347363934 9.332992661439699 L10.708631192491037 16.40913880921985 z"/>
<path fill="#000000" stroke="#000000" d="M4.7040622341566305 8.273097769048757 L11.770051091916427 15.349238909650165 L11.770051091916427 15.349238909650165 L4.7040622341566305 8.273097769048757 z"/>
<path fill="#000000" stroke="#000000" d="M11.77005 15.34924 L4.70406 8.2731 L3.64264 9.33299 L10.70863 16.40914 z"/>
<path fill="#000000" stroke="#000000" d="M11.770049669504893 15.349239669030043 L10.708628249133328 16.409138246617715 L10.708628249133328 16.409138246617715 L11.770049669504893 15.349239669030043 z"/>
<path fill="#000000" stroke="#000000" d="M3.42335 8.803045685279194 L3.42335 8.803045685279194 L4.92335 8.803045685279194 L4.92335 8.803045685279194 z"/>
<path fill="#000000" stroke="#000000" d="M4.923350253807109 -1.19695 L4.923350253807109 8.80305 L4.923350253807109 8.80305 L4.923350253807109 -1.19695 z"/>
<path fill="#000000" stroke="#000000" d="M3.42335 8.80305 L3.42335 -1.19695 L4.92335 -1.19695 L4.92335 8.80305 z"/>
<path fill="#000000" stroke="#000000" d="M3.42335 -1.19695 L3.42335 8.80305 L4.92335 8.80305 L4.92335 -1.19695 z"/>
<path fill="#000000" stroke="#000000" d="M3.423350253807109 8.80305 L3.423350253807109 -1.19695 L3.423350253807109 -1.19695 L3.423350253807109 8.80305 z"/>
<path fill="#000000" stroke="#000000" d="M3.42335 -1.1969543147208057 L3.42335 -1.1969543147208057 L4.92335 -1.1969543147208057 L4.92335 -1.1969543147208057 z"/>
</svg>