<?xml version="1.0" encoding="UTF-8"?>
<!-- Generated by jsxcad -->
<!DOCTYPE svg PUBLIC "-//W3C//DTD SVG 1.1 Tiny//EN" "http://www.w3.org/Graphics/SVG/1.1/DTD/svg11-tiny.dtd">
<svg viewBox="-250 -250 500 500" width="500" height="500" xmlns="http://www.w3.org/2000/svg"><path d="M36.78134458030453,72.64430284339707L42.61144791303176,71.26092416982885L2.160945653384129,-8.27782870738412z" style="fill:rgb(127,37,217)"/><path d="M13.11112327682242,8.541558284546497L53.52596846813981,88.37436746259897L176.41338464194834,-44.25874633987568zM176.41338464194834,-44.25874633987568L148.23899035992414,-129.31955968701143L13.11112327682242,8.541558284546497z" style="fill:rgb(212,85,213)"/><path d="M-139.76059734473785,136.59574067414388L43.48820679241323,94.1488377489087L2.2091347143690694,14.75446122604446z" style="fill:rgb(127,37,217)"/><path d="M43.48820679241323,94.1488377489087L42.61144791303176,71.26092416982885L2.160945653384129,-8.27782870738412z" style="fill:rgb(247,158,158)"/><path d="M2.184774492470127,3.1113272418724334L43.04536331616762,82.58834636079216L53.52596846813981,88.37436746259897z" style="fill:rgb(42,41,169)"/><path d="M2.2091347143690694,14.75446122604446L-193.656701537374,64.42738431582664L-139.76059734473785,136.59574067414388z" style="fill:rgb(127,37,217)"/><path d="M13.11112327682242,8.541558284546497L148.23899035992414,-129.31955968701143L125.36284396517358,-136.71189328503226z" style="fill:rgb(83,212,212)"/><path d="M2.160945653384129,-8.27782870738412L-4.083956242576809,-6.658533360371538L36.78134458030453,72.64430284339707z" style="fill:rgb(127,37,217)"/><path d="M2.160945653384129,-8.27782870738412L-189.63247867094765,41.45397171953501L-193.656701537374,64.42738431582664zM125.36284396517358,-136.71189328503226L-4.083956242576809,-6.658533360371538L2.160945653384129,-8.27782870738412zM2.160945653384129,-8.27782870738412L13.11112327682242,8.541558284546497L125.36284396517358,-136.71189328503226z" style="fill:rgb(83,212,212)"/><path d="M2.160945653384129,-8.27782870738412L2.2091347143690694,14.75446122604446L43.48820679241323,94.1488377489087z" style="fill:rgb(247,158,158)"/><path d="M53.52596846813981,88.37436746259897L13.11112327682242,8.541558284546497L2.184774492470127,3.1113272418724334z" style="fill:rgb(42,41,169)"/><path d="M-193.656701537374,64.42738431582664L2.2091347143690694,14.75446122604446L2.160945653384129,-8.27782870738412zM2.160945653384129,-8.27782870738412L2.184774492470127,3.1113272418724334L13.11112327682242,8.541558284546497z" style="fill:rgb(83,212,212)"/></svg>
